<?xml version="1.0" encoding="utf-8"?>
<!-- Generator: Adobe Illustrator 22.0.1, SVG Export Plug-In . SVG Version: 6.00 Build 0)  -->
<svg version="1.1" id="圖層_1" xmlns="http://www.w3.org/2000/svg" xmlns:xlink="http://www.w3.org/1999/xlink" x="0px" y="0px"
	 viewBox="0 0 36 36" style="enable-background:new 0 0 36 36;" xml:space="preserve">
<style type="text/css">
	.st0{fill-rule:evenodd;clip-rule:evenodd;fill:#8BC34A;}
</style>
<g>
	<path class="st0" d="M9.8,27.8c-0.5,0-1,0.3-1.4,0.7C8,29,7.7,29.6,7.7,30.2c-0.1,0.2-0.3,0.4-0.5,0.6c-0.6,0.7-1.3,1.6-1.2,2.5
		c0,0.3,0.2,0.8,0.8,1.2c0.3,0.2,0.7,0.4,1,0.4c0,0,0,0,0,0c1.2,0,1.7-1.4,2.1-2.4c0.1-0.2,0.1-0.4,0.2-0.5c0.1-0.2,0.3-0.4,0.5-0.6
		c0.5-0.7,1.5-1.9,0.4-3.1C10.6,27.9,10.2,27.8,9.8,27.8z"/>
	<path class="st0" d="M5.6,23.5c-0.1,0-0.3,0-0.4,0c-1.2,0-2.7,0.6-3.6,1.5c-0.5,0.5-0.8,1.2-0.8,1.8c0,0.2,0.1,0.4,0.3,0.5
		c0.3,0.2,0.7,0.2,1.1,0.2c0,0,0,0,0,0c0.8,0,1.9-0.3,2.9-0.9c0.7-0.4,1.8-1.1,1.8-1.9C7,24.4,6.9,23.7,5.6,23.5z"/>
	<path class="st0" d="M20,7.9C20,7.9,20,7.9,20,7.9c0.4,0,0.7-0.2,1-0.7c0.4-0.6,1.5-4,0.7-5.4C21.5,1.3,21,1,20.5,1
		c-0.1,0-0.3,0-0.4,0.1c-0.8,0.2-1.2,1.2-1.5,3.9c0,0.1,0,0.1,0,0.2c0,0.4,0.1,1.8,0.7,2.4C19.5,7.8,19.8,7.9,20,7.9z"/>
	<path class="st0" d="M30.3,16.1c0.2,0,0.3,0,0.5-0.1c0.1,0,0.3,0,0.5,0c0.2,0,0.4,0,0.6,0c0.2,0,0.5,0,0.7,0c0,0,0,0,0,0
		c0.6,0,1.9,0,2.3-1.1c0.2-0.5,0.1-1-0.3-1.5c-0.4-0.6-1-0.9-1.6-0.9c-0.1,0-0.3,0-0.4,0c0,0-0.1,0-0.1,0c-0.3,0.1-0.7,0.2-1.1,0.3
		c-0.5,0.1-1.1,0.2-1.7,0.5c-0.7,0.4-1,1.1-0.8,1.7C29.2,15.7,29.7,16.1,30.3,16.1z"/>
	<path class="st0" d="M4.3,18.2c1.4,0,2.5-0.6,2.8-1.7c0.2-0.9,0-1.4-0.3-1.7C6.4,14.3,5.6,14,4.6,14c-1.2,0-2.7,0.4-3.3,0.9
		C1.1,15.1,1,15.2,1,15.4c0,0.7,0.2,1.3,0.7,1.8C2.3,17.9,3.3,18.2,4.3,18.2C4.3,18.2,4.3,18.2,4.3,18.2z"/>
	<path class="st0" d="M3.8,6C3.7,6,3.6,6,3.5,6C2,6.3,1.9,7.2,1.9,7.6c0.2,1.7,4.1,4,5.5,4c0,0,0,0,0,0c0,0,0.1,0,0.1,0
		C8.6,11.5,9,10.9,9,10.3C8.9,8.7,5.7,6,3.8,6z"/>
	<path class="st0" d="M29.9,4c-0.1,0-0.2,0-0.4,0C28.6,4.1,28.3,5,28,5.6c-0.1,0.2-0.2,0.6-0.3,0.7c-1,0.4-2.5,2.6-2.3,3.3
		c0.1,0.6,0.6,1,1.1,1c0,0,0,0,0,0c0.6,0,1.2-0.5,1.8-1.4c0,0,0-0.1,0.1-0.1c1.1-1.3,3-3.5,2.6-4.3C31,4.4,30.7,4,29.9,4z"/>
	<path class="st0" d="M20.3,29c0,0-0.1,0-0.1,0c-1.3,0.1-1.8,2.4-1.7,4c0.1,1.5,0.7,2.5,1.6,2.5c0.1,0,0.2,0,0.3,0
		c0.3-0.1,0.7-0.4,0.9-2c0.1-1,0.2-2,0.1-2.8C21.3,29.6,20.9,29,20.3,29z"/>
	<path class="st0" d="M27.9,19c-0.1,1.1-0.5,2.1-0.5,2.4c-0.6,2-2,3.7-3.9,5c-1,0.7-2.7,1.2-4.1,1.3c-0.4,0-1,0.1-1.6,0.1
		c-0.6,0-1.2,0-1.6-0.1c0,0-0.1,0-0.2,0c-0.6-0.1-0.9-0.2-1-0.3c0-0.1-0.1-0.1-0.2-0.1c-2.2-0.1-4.1-2.5-5.5-4.5
		c-0.6-0.9-1.1-2.1-1.2-3.4c-0.1-1-0.2-2.5,0.1-3.5c0.9-2.7,2.2-4.4,4.3-5.9c1-0.7,2.4-1.3,3.6-1.5c0.5-0.1,1.5-0.2,2.5-0.2
		c1.2,0,1.5,0.2,1.6,0.2c0.2,0.2,0.8,0.4,1.7,0.6l0.1,0c0.3,0.1,0.6,0.3,0.8,0.5c0.2,0.2,0.5,0.4,0.7,0.5c0.8,0.4,1.4,1,2,1.7
		c0.3,0.3,0.6,0.7,0.9,1c0.6,0.5,0.7,1.4,0.9,2.3c0.1,0.6,0.2,1.2,0.5,1.7C28,17.2,28,18,27.9,19z"/>
	<path class="st0" d="M12,8.7c0.4,0.1,0.5,0.7,1,0.6c0.3-0.1,0.9-0.3,1-1.3c0-0.4,0-1-0.2-1.6c-0.5-2-2.2-5.7-4.2-5.2
		C9.2,1.2,8.9,1.6,9,2.1C9.1,2.5,10.3,8.1,12,8.7z"/>
	<path class="st0" d="M33.8,21.9c-1.3-0.7-4-1.5-4.6-0.2c-0.1,0.3,0,0.6,0.2,0.7c0.3,0.1,3.7,2.1,4.8,1.5c0.3-0.1,0.6,0,0.7-0.2
		c0.1-0.2,0.2-0.6-0.2-1.1C34.5,22.3,34.2,22.1,33.8,21.9z"/>
	<path class="st0" d="M29.9,28.2C29.8,28.2,29.8,28.2,29.9,28.2C29.8,28.2,29.8,28.1,29.9,28.2c-1.7-0.8-2.3,0-2.5,0.4
		c-0.5,0.9,0.2,2.2,0.4,2.8c0.6,1,1.4,1.9,2.2,2.3c0,0,0,0,0,0c0.3,0.2,0.7,0.3,1,0.3c1.4,0.2,1.9-0.5,2-0.9
		C33.5,31.5,30.5,28.6,29.9,28.2z"/>
</g>
</svg>
